<svg xmlns="http://www.w3.org/2000/svg" version="1.1" xmlns:xlink="http://www.w3.org/1999/xlink" xmlns:svgjs="http://svgjs.dev/svgjs" width="100%" height="100%" viewBox="0 0 1000 600"><rect width="1000" height="600" x="0" y="0" fill="white"/><g><rect width="333.3333333333333" height="333.3333333333333" rx="13.333333333333334" ry="13.333333333333334" y="196.02899884497026" fill="black" transform="matrix(0.719189463241623,0,0,0.7191894632416229,0,39.15309278162164)" x="173.80680847167966"/><path d="M254.361232657842 437.6956704806688L214.0604632424448 436.7873135441835L186.32529811509403 437.6956704806688Q184.3571914193759 437.6956704806688 183.84245582203425 436.9084278023816Q183.29744166014308 436.1514636886438 183.29744166014308 433.7897356537821Q183.29744166014308 431.42800761892033 184.26635572572738 430.7316006342816Q185.2352697913117 430.03519364964285 187.65755495527247 430.03519364964285L187.65755495527247 430.03519364964285L201.61597321259637 430.03519364964285Q202.46377301998263 430.03519364964285 203.34185139191842 382.10422596776925Q204.2199297638542 334.17325828589566 204.2199297638542 315.61249821704627Q204.2199297638542 297.0820167127464 203.79602986016104 297.0820167127464L203.79602986016104 297.0820167127464L188.7475832790548 297.50591661643955Q187.02170509973277 297.50591661643955 186.35557667964355 296.93062388999886Q185.68944825955433 296.38560972810774 185.68944825955433 294.205553080543Q185.68944825955433 292.02549643297834 186.2344624214455 291.056582367394Q186.77947658333667 290.11794686635926 188.7475832790548 290.11794686635926L188.7475832790548 290.11794686635926L204.2199297638542 290.3298968182058Q213.21266343505854 290.3298968182058 229.23002408174906 289.02791854257686Q245.24738472843964 287.6956617023984 254.05844701234693 287.6956617023984Q262.86950929625425 287.6956617023984 275.55622784249874 290.99602523829503Q288.2732249532927 294.266110209642 298.62849402922495 300.71544445868756Q309.0140416697068 307.1950572722826 316.5836828070842 316.18779094348696L316.5836828070842 316.18779094348696Q332.4496506310272 335.1421723514799 332.4496506310272 363.11956599522676L332.4496506310272 363.11956599522676Q332.4496506310272 393.09534489924124 314.494461853168 413.1700331955661L314.494461853168 413.1700331955661Q298.3257083837299 431.3068933607223 271.4989001928644 436.1514636886438L271.4989001928644 436.1514636886438Q263.14201637719975 437.6956704806688 254.361232657842 437.6956704806688L254.361232657842 437.6956704806688ZM224.93046791571874 295.9617098244146L224.93046791571874 295.9617098244146Q223.44681825279278 296.5370025508553 223.44681825279278 363.1801231243258Q223.44681825279278 429.8232436977963 223.65876820463933 430.03519364964285L223.65876820463933 430.03519364964285Q225.29381069031285 430.7316006342816 237.98052923655735 430.7316006342816Q250.63696921825235 430.7316006342816 262.59700221530863 427.70374417933067Q274.52675664781543 424.6456091598302 282.06611922064326 420.2249387356018Q289.6054817934712 415.8345468759229 295.05562341238283 408.8401984649862Q300.5057650312946 401.876128618599 303.1400001471019 396.1232013541922Q305.7742352629093 390.37027408978537 307.1973277967362 382.4070116132644L307.1973277967362 382.4070116132644Q309.0745987988058 372.1122996664311 309.0745987988058 362.39288044603853Q309.0745987988058 352.6431826610965 306.9853778448896 344.77075587822395Q304.926435455523 336.89832909535147 301.11133632228484 329.6011950389197Q297.32651575359614 322.3040609824879 291.54330992463974 315.94556242709086Q285.76010409568346 309.5870638716939 278.7354771201973 304.83332923742086L278.7354771201973 304.83332923742086Q263.687030539091 294.6900101133352 244.1270778401078 294.6900101133352L244.1270778401078 294.6900101133352Q230.41088809917997 294.6900101133352 224.93046791571874 295.9617098244146ZM419.56108083996617 437.6956704806688L379.29058998911853 436.7873135441835L351.55542486176773 437.6956704806688Q349.5873181660496 437.6956704806688 349.0423040041584 436.9084278023816Q348.5275684068167 436.1514636886438 348.5275684068167 433.7897356537821Q348.5275684068167 431.42800761892033 349.46620390785154 430.7316006342816Q350.4351179734358 430.03519364964285 352.8876817019461 430.03519364964285L352.8876817019461 430.03519364964285L366.8158213947205 430.03519364964285Q367.6636212021068 430.03519364964285 368.5416995740426 382.10422596776925Q369.41977794597835 334.17325828589566 369.41977794597835 315.61249821704627Q369.41977794597835 297.0820167127464 368.9958780422852 297.0820167127464L368.9958780422852 297.0820167127464L353.947431461179 297.50591661643955Q352.2518318464065 297.50591661643955 351.5857034263172 296.93062388999886Q350.919575006228 296.38560972810774 350.919575006228 294.205553080543Q350.919575006228 292.02549643297834 351.43431060356966 291.056582367394Q351.9793247654609 290.11794686635926 353.947431461179 290.11794686635926L353.947431461179 290.11794686635926L369.41977794597835 290.3298968182058Q378.41251161718264 290.3298968182058 394.4601508284228 289.02791854257686Q410.47751147511326 287.6956617023984 419.28857375902055 287.6956617023984Q428.0693574783784 287.6956617023984 440.78635458917233 290.99602523829503Q453.4730731354168 294.266110209642 463.85862077589866 300.71544445868756Q474.2138898518309 307.1950572722826 481.7835309892083 316.18779094348696L481.7835309892083 316.18779094348696Q497.64949881315135 335.1421723514799 497.64949881315135 363.11956599522676L497.64949881315135 363.11956599522676Q497.64949881315135 393.09534489924124 479.7245885998417 413.1700331955661L479.7245885998417 413.1700331955661Q463.525556565854 431.3068933607223 436.69874837498855 436.1514636886438L436.69874837498855 436.1514636886438Q428.341864559324 437.6956704806688 419.56108083996617 437.6956704806688L419.56108083996617 437.6956704806688ZM390.13031609784287 295.9617098244146L390.13031609784287 295.9617098244146Q388.64666643491694 296.5370025508553 388.64666643491694 363.1801231243258Q388.64666643491694 429.8232436977963 388.8586163867635 430.03519364964285L388.8586163867635 430.03519364964285Q390.4936588724371 430.7316006342816 403.1803774186815 430.7316006342816Q415.8368174003765 430.7316006342816 427.79685039743276 427.70374417933067Q439.72660482993956 424.6456091598302 447.2659674027674 420.2249387356018Q454.8053299755952 415.8345468759229 460.25547159450696 408.8401984649862Q465.7056132134187 401.876128618599 468.339848329226 396.1232013541922Q470.97408344503344 390.37027408978537 472.4274545434099 382.4070116132644L472.4274545434099 382.4070116132644Q474.27444698092995 372.1122996664311 474.27444698092995 362.39288044603853Q474.27444698092995 352.6431826610965 472.21550459156333 344.77075587822395Q470.12628363764713 336.89832909535147 466.31118450440886 329.6011950389197Q462.52636393572016 322.3040609824879 456.7431581067639 315.94556242709086Q450.9599522778076 309.5870638716939 443.9353253023213 304.83332923742086L443.9353253023213 304.83332923742086Q428.8868787212151 294.6900101133352 409.35720458678145 294.6900101133352L409.35720458678145 294.6900101133352Q395.6107362813042 294.6900101133352 390.13031609784287 295.9617098244146Z " fill="white" transform="matrix(0.719189463241623,0,0,0.7191894632416229,0,39.15309278162164)"/><path d="M640.4167381425199 393.1148820234276L612.0935708775913 392.476493580191L592.6014437441019 393.1148820234276Q591.2182687837559 393.1148820234276 590.8565153325886 392.56161203928923Q590.4734822666466 392.0296216699254 590.4734822666466 390.36981171751034Q590.4734822666466 388.71000176509534 591.1544299394324 388.22057062528063Q591.8353776122179 387.7311394854659 593.5377467941821 387.7311394854659L593.5377467941821 387.7311394854659L603.3476492052505 387.7311394854659Q603.943478418938 387.7311394854659 604.5605872473999 354.04550929735035Q605.177696075862 320.3598791092347 605.177696075862 307.31547525243445Q605.177696075862 294.29235101040865 604.8797814690182 294.29235101040865L604.8797814690182 294.29235101040865L594.3038129260659 294.5902656172524Q593.0908748839165 294.5902656172524 592.6227233588764 294.18595293653595Q592.1545718338363 293.802919870594 592.1545718338363 292.2707876068263Q592.1545718338363 290.7386553430585 592.5376048997781 290.05770767027286Q592.9206379657202 289.39803961226175 594.3038129260659 289.39803961226175L594.3038129260659 289.39803961226175L605.177696075862 289.5469969156836Q611.4977416639039 289.5469969156836 622.7546578796419 288.63197348037784Q634.0115740953798 287.6956704302976 640.2039419947744 287.6956704302976Q646.3963098941689 287.6956704302976 655.3124684847062 290.01514844072375Q664.249906690018 292.31334683637533 671.5275349429147 296.8459047833549Q678.826442810586 301.39974234510896 684.146346504224 307.7197879331509L684.146346504224 307.7197879331509Q695.2968646460891 321.04082678202036 695.2968646460891 340.7031908337063L695.2968646460891 340.7031908337063Q695.2968646460891 361.77000946051265 682.6780530847799 375.8783940560405L682.6780530847799 375.8783940560405Q671.3147387951692 388.6248833059971 652.4610001049163 392.0296216699254L652.4610001049163 392.0296216699254Q646.5878264271399 393.1148820234276 640.4167381425199 393.1148820234276L640.4167381425199 393.1148820234276ZM619.7329525816555 293.50500526375026L619.7329525816555 293.50500526375026Q618.6902514577024 293.90931794446675 618.6902514577024 340.7457500632554Q618.6902514577024 387.58218218204405 618.8392087611243 387.7311394854659L618.8392087611243 387.7311394854659Q619.98830795895 388.22057062528063 628.9044665494873 388.22057062528063Q637.79934552525 388.22057062528063 646.204793361198 386.09260914782544Q654.5889615823714 383.9433680555957 659.8875856612348 380.8365442985111Q665.1862097400982 377.7510001562011 669.0165403995176 372.83540914327966Q672.8468710589369 367.9410977451327 674.698197544323 363.89797093796784Q676.549524029709 359.854844130803 677.5496659241129 354.25830544509586L677.5496659241129 354.25830544509586Q678.8690020401351 347.0232364217482 678.8690020401351 340.19248007911705Q678.8690020401351 333.34044412171136 677.400708620691 327.8077442803279Q675.9536948160215 322.2750444389444 673.2724633544279 317.1466572782774Q670.6125115076089 312.01827011761037 666.5481050856696 307.5495510149545Q662.4836986637301 303.0808319122986 657.5468280360341 299.73993239269396L657.5468280360341 299.73993239269396Q646.9708594930818 292.61126144321906 633.2242283487213 292.61126144321906L633.2242283487213 292.61126144321906Q623.5845628558494 292.61126144321906 619.7329525816555 293.50500526375026ZM750.5813038303748 358.0247972601915L750.5813038303748 358.0247972601915L716.38496288767 357.23745151353313Q715.9380909774044 358.36527109658437 715.9380909774044 363.1957436504076Q715.9380909774044 368.00493658945635 717.810697077565 372.79284991373055Q719.6833031777256 377.5807632380047 722.7475677052611 380.6663073803147L722.7475677052611 380.6663073803147Q729.301689055823 387.1353102717785 737.8560941951929 387.1353102717785L737.8560941951929 387.1353102717785Q748.2831054347233 387.1353102717785 756.8587901888677 378.1978720664667L756.8587901888677 378.1978720664667Q757.8589320832716 377.1764505572882 758.1355670753409 377.1764505572882Q758.3909224526354 377.1764505572882 759.7528177982067 378.36810898466314Q761.1147131437781 379.5384877972635 761.1147131437781 379.8364024041072Q761.1147131437781 380.1343170109509 759.9017751016286 381.6877288894932Q758.6888370594792 383.2411407680355 756.2416813604057 385.47550031936345Q753.7945256613322 387.68858025591686 750.6451426746986 389.79526211859746L750.6451426746986 389.79526211859746Q743.0908794297326 394.79597159061717 735.1535831188248 394.79597159061717Q727.1950071931424 394.79597159061717 721.5133500483371 392.49777319496553Q715.8316929035317 390.19957479931395 712.1077603179851 386.0713295330509Q708.3838277324386 381.9218046520133 706.4261031731797 376.21886789243337Q704.4470989991464 370.5159311328535 704.4470989991464 363.68517479022233Q704.4470989991464 356.83313883281664 706.7665770095726 350.81100785161846Q709.0860550199988 344.78887687042027 713.1717410567127 340.40527622686255L713.1717410567127 340.40527622686255Q722.0453404177008 330.91456803741244 735.9834880950324 330.91456803741244L735.9834880950324 330.91456803741244Q747.3255227698685 330.91456803741244 753.4966110544884 338.46883128237835L753.4966110544884 338.46883128237835Q759.2846662731666 345.5762226170787 759.2846662731666 355.7053192497654L759.2846662731666 355.7053192497654Q759.2846662731666 358.0247972601915 750.5813038303748 358.0247972601915ZM718.0660524548597 353.7263150757321L744.3676563162057 353.0453674029464Q747.8149539096831 353.0453674029464 747.8149539096831 352.49209741880804L747.8149539096831 352.49209741880804Q747.8149539096831 341.49053658036473 741.0054771818266 337.23461362545436L741.0054771818266 337.23461362545436Q737.707136891771 335.1704909923228 734.1747208391954 335.1704909923228Q730.6423047866198 335.1704909923228 727.4078033408879 336.8941397890615Q724.173301895156 338.6177885858002 721.9176627290535 341.2777404326192L721.9176627290535 341.2777404326192Q717.1297494047793 347.0019568069737 716.6828774945137 352.98152855862276L716.6828774945137 352.98152855862276Q716.6828774945137 353.7263150757321 718.0660524548597 353.7263150757321L718.0660524548597 353.7263150757321ZM816.3991523280638 350.9599651550403L816.3991523280638 350.9599651550403L815.5054085075327 382.219719258857Q815.5054085075327 385.1563060977452 817.6120903702133 386.15644799214914L817.6120903702133 386.15644799214914Q818.0164030509299 386.34796452512006 818.5058341907444 386.34796452512006Q818.9952653305592 386.34796452512006 821.6552171773782 384.4327991954104Q824.3364486389717 382.5389134804753 824.6343632458154 382.5389134804753Q824.9322778526591 382.5389134804753 825.889860517514 383.70929229307563Q826.8474431823688 384.879671105676 826.8474431823688 385.30526340116705Q826.8474431823688 385.7521353114326 825.8260216731903 386.53948105809104Q824.7833205492373 387.3268268047495 822.4851221535856 389.0079163719391Q820.1869237579341 390.68900593912866 817.1652184599476 392.8808062609075Q814.1222335471867 395.0938861974609 812.7816178163899 395.0938861974609Q811.4410020855933 395.0938861974609 810.4834194207384 394.73213274629353Q809.5258367558836 394.34909968035157 808.9725667717452 393.83838892576233Q808.3980171728323 393.3489577859476 807.9085860330176 392.476493580191Q807.3978752784284 391.6253089892089 807.1637995159083 391.02947977552145Q806.9510033681628 390.4123709470595 806.6318091465445 389.41222905265556Q806.3126149249263 388.390807543477 806.0785391624062 387.77369871501503L806.0785391624062 387.77369871501503Q805.7380653260133 386.7522772058366 804.4825680543148 387.58218218204405L804.4825680543148 387.58218218204405Q793.0979741499295 394.6470142871953 785.6926682083855 394.6470142871953Q778.2873622668415 394.6470142871953 774.1378373858038 390.9656409311978Q769.9883125047662 387.2842675752004 769.9883125047662 381.13445890535485L769.9883125047662 381.13445890535485Q769.9883125047662 374.26114333317463 775.6699696495715 369.4306707793513L775.6699696495715 369.4306707793513Q781.3303471796023 364.6427574550772 787.2248004721532 362.62119405149474L787.2248004721532 362.62119405149474Q796.6516698172796 359.4505314500865 804.7804826611585 358.0247972601915L804.7804826611585 358.0247972601915Q805.5252691782679 357.87583995676965 805.5252691782679 355.6414804054417Q805.5252691782679 353.38584123933924 805.4827099487187 351.9388274346697Q805.4401507191695 350.4705340152256 805.2911934157477 348.172335619574Q805.1422361123259 345.8741372239224 804.801762275933 344.53352149312565Q804.4400088247656 343.21418537710343 803.8654592258528 341.46925696559015Q803.2696300121653 339.74560816885145 802.3120473473105 338.74546627444755Q801.333185067681 337.7453243800436 800.0351285664334 336.8090213299633L800.0351285664334 336.8090213299633Q797.58797286736 335.02153368890094 793.8427606670389 335.02153368890094Q790.0762688519432 335.02153368890094 787.522715078997 336.08551442762854Q784.9478816912762 337.14949516635613 784.2243747889414 339.12849934038945Q783.5008678866067 341.08622389964825 783.5008678866067 344.8314360999694Q783.5008678866067 348.55536868551593 782.011294852388 349.5767901946944Q780.5430014329439 350.57693208909836 777.3297796019866 352.2367420415134Q774.0952781562547 353.8752723791539 773.4994489425673 353.8752723791539L773.4994489425673 353.8752723791539Q772.1162739822214 353.8752723791539 772.1162739822214 350.55565247432384Q772.1162739822214 347.2573121842683 773.6271266312145 343.91641266466365Q775.1166996654332 340.5542335302844 777.5851349792812 338.1496370607601Q780.0535702931293 335.72376097646116 783.1603940502138 333.97883256494794L783.1603940502138 333.97883256494794Q789.3314823348338 330.4251368975977 794.928021020541 330.4251368975977Q800.5032800914736 330.4251368975977 804.0569757588238 331.40399917722715Q807.6106714261739 332.361581842082 809.9301494366001 334.1065102535952Q812.2496274470262 335.8514386651085 813.7179208664703 338.46883128237835L813.7179208664703 338.46883128237835Q816.3991523280638 343.25674460665255 816.3991523280638 350.9599651550403ZM781.628261786446 376.8359767208954L781.628261786446 376.8359767208954Q781.628261786446 379.3044120347434 782.6922425251737 381.58133081562045Q783.7562232639012 383.836969981723 785.9693032004546 385.4116614750398Q788.2036627517826 386.98635296835664 791.033851516798 386.98635296835664Q793.8640402818133 386.98635296835664 797.3326174900653 386.11388876259997L797.3326174900653 386.11388876259997Q805.5252691782679 384.0923253590176 805.5252691782679 382.68787078389715L805.5252691782679 382.68787078389715L805.5252691782679 362.62119405149474Q805.5252691782679 361.3869763945707 805.1635157271004 361.3869763945707Q804.8230418907076 361.3869763945707 803.4611465451363 361.6636113866399L803.4611465451363 361.6636113866399Q781.628261786446 365.9195343415503 781.628261786446 376.8359767208954ZM842.743315418959 338.72418665967297L833.5718014511272 339.0221012665167Q832.486541097625 339.0221012665167 832.486541097625 338.6603478153493Q832.486541097625 338.27731474940737 832.6142187862723 337.7453243800436Q832.7206168601451 337.19205439590525 832.8908537783416 336.5536659526687Q833.0610906965379 335.91527750943214 833.1674887704107 335.3194482957447L833.1674887704107 335.3194482957447Q833.4015645329308 334.42570447521354 835.8699998467788 334.42570447521354L835.8699998467788 334.42570447521354Q848.6590483262845 333.97883256494794 851.2126020992306 333.97883256494794Q853.7874354869515 333.97883256494794 854.0215112494715 334.14906948314433Q854.2555870119917 334.3193064013407 854.2555870119917 335.3194482957447L854.2555870119917 335.3194482957447L854.1066297085698 344.2356068862819L854.1066297085698 345.278308010235L854.1491889381188 345.8741372239224Q854.1491889381188 345.64006146140235 854.7024589222572 344.53352149312565L854.7024589222572 344.53352149312565Q857.2560126952034 338.42627205282923 861.405537576241 334.80873754115544Q865.5550624572786 331.21248264425617 869.1725969689525 331.21248264425617Q872.7688518658517 331.21248264425617 875.7054387047399 333.78731603197696Q878.6207459288535 336.36214941969774 878.6207459288535 338.107077831211Q878.6207459288535 339.85200624272426 876.4927844513983 342.5119580895432Q874.3435433591685 345.15063032158764 872.7688518658517 345.15063032158764Q871.2154399873094 345.15063032158764 869.853544641738 344.3845641897038Q868.5129289109414 343.6184980578199 867.5127870165375 342.7247542372887L867.5127870165375 342.7247542372887Q864.8102759401694 340.25631892344074 863.2781436764016 340.25631892344074L863.2781436764016 340.25631892344074Q855.0216531438755 340.25631892344074 855.0216531438755 371.04792150221726L855.0216531438755 371.04792150221726Q855.0216531438755 387.7311394854659 856.4048281042213 387.7311394854659L856.4048281042213 387.7311394854659L866.4913655073589 387.7311394854659Q867.7681423938321 387.7311394854659 868.151175459774 388.30568908437886Q868.5129289109414 388.8802386832918 868.5129289109414 389.8803805776957Q868.5129289109414 390.88052247209964 868.4703696813922 391.1997166937179Q868.4490900666177 391.54019053011075 868.2575735336467 391.94450321082724L868.2575735336467 391.94450321082724Q867.9170996972539 392.77440818703474 866.4913655073589 392.77440818703474L866.4913655073589 392.77440818703474L849.8081475241103 392.476493580191L836.1679144536225 392.77440818703474Q834.8911375671494 392.77440818703474 834.529384115982 392.19985858812186Q834.1676306648146 391.6253089892089 834.1676306648146 390.5613282504813Q834.1676306648146 389.4760678969792 834.2101898943638 389.15687367536094Q834.2527491239128 388.8163998389681 834.4017064273347 388.43336677302614L834.4017064273347 388.43336677302614Q834.6570618046293 387.7311394854659 836.0189571502007 387.7311394854659L836.0189571502007 387.7311394854659L842.743315418959 387.7311394854659Q843.9775330758831 387.7311394854659 843.9775330758831 363.2170232651822Q843.9775330758831 338.72418665967297 842.743315418959 338.72418665967297L842.743315418959 338.72418665967297ZM934.5010143268267 393.1148820234276L906.1778470618982 392.476493580191L886.6857199284086 393.1148820234276Q885.3025449680628 393.1148820234276 884.9407915168954 392.56161203928923Q884.5577584509534 392.0296216699254 884.5577584509534 390.36981171751034Q884.5577584509534 388.71000176509534 885.2387061237391 388.22057062528063Q885.8983741817502 387.7311394854659 887.6220229784889 387.7311394854659L887.6220229784889 387.7311394854659L897.4319253895574 387.7311394854659Q898.0277546032448 387.7311394854659 898.6448634317068 354.04550929735035Q899.2619722601688 320.3598791092347 899.2619722601688 307.31547525243445Q899.2619722601688 294.29235101040865 898.9640576533251 294.29235101040865L898.9640576533251 294.29235101040865L888.3668094955982 294.5902656172524Q887.1751510682233 294.5902656172524 886.7069995431832 294.18595293653595Q886.2388480181431 293.802919870594 886.2388480181431 292.2707876068263Q886.2388480181431 290.7386553430585 886.621881084085 290.05770767027286Q886.9836345352523 289.39803961226175 888.3668094955982 289.39803961226175L888.3668094955982 289.39803961226175L899.2619722601688 289.5469969156836Q905.5820178482107 289.5469969156836 916.8389340639486 288.63197348037784Q928.0958502796866 287.6956704302976 934.2882181790811 287.6956704302976Q940.4805860784758 287.6956704302976 949.396744669013 290.01514844072375Q958.3341828743247 292.31334683637533 965.6118111272216 296.8459047833549Q972.9107189948928 301.39974234510896 978.2306226885308 307.7197879331509L978.2306226885308 307.7197879331509Q989.3811408303959 321.04082678202036 989.3811408303959 340.7031908337063L989.3811408303959 340.7031908337063Q989.3811408303959 361.77000946051265 976.7623292690868 375.8783940560405L976.7623292690868 375.8783940560405Q965.399014979476 388.6248833059971 946.545276289223 392.0296216699254L946.545276289223 392.0296216699254Q940.6721026114468 393.1148820234276 934.5010143268267 393.1148820234276L934.5010143268267 393.1148820234276ZM913.8172287659622 293.50500526375026L913.8172287659622 293.50500526375026Q912.7745276420093 293.90931794446675 912.7745276420093 340.7457500632554Q912.7745276420093 387.58218218204405 912.9234849454311 387.7311394854659L912.9234849454311 387.7311394854659Q914.0725841432569 388.22057062528063 922.9674631190196 388.22057062528063Q931.8836217095569 388.22057062528063 940.2677899307303 386.09260914782544Q948.6732377666782 383.9433680555957 953.9718618455416 380.8365442985111Q959.2704859244051 377.7510001562011 963.1008165838244 372.83540914327966Q966.9311472432438 367.9410977451327 968.7824737286297 363.89797093796784Q970.6338002140157 359.854844130803 971.6339421084197 354.25830544509586L971.6339421084197 354.25830544509586Q972.9532782244419 347.0232364217482 972.9532782244419 340.19248007911705Q972.9532782244419 333.34044412171136 971.4849848049978 327.8077442803279Q970.0379710003282 322.2750444389444 967.3567395387348 317.1466572782774Q964.6755080771412 312.01827011761037 960.6323812699765 307.5495510149545Q956.5679748480369 303.0808319122986 951.631104220341 299.73993239269396L951.631104220341 299.73993239269396Q941.0338560626141 292.61126144321906 927.3085045330282 292.61126144321906L927.3085045330282 292.61126144321906Q917.6688390401562 292.61126144321906 913.8172287659622 293.50500526375026ZM1008.0646426024524 338.08579821643644L1007.5539318478633 338.08579821643644L1000.2124647506429 338.3837128232802Q998.8292897902969 338.3837128232802 998.8292897902969 337.80916322436724Q998.8292897902969 337.23461362545436 999.4251190039844 335.6599221321375Q999.9996686028973 334.0852306388207 1000.5103793574866 333.8724344910752Q1000.9998104973013 333.6383587285551 1002.5106631462944 333.6383587285551L1002.5106631462944 333.6383587285551L1019.810989958005 332.89357221144576Q1020.8749706967327 332.89357221144576 1021.1090464592527 333.17020720351496Q1021.3644018365475 333.4468421955841 1021.3644018365475 334.27674717179167L1021.3644018365475 334.27674717179167L1021.3644018365475 360.3017160410686Q1021.3644018365475 387.7311394854659 1022.1304679684313 387.7311394854659L1022.1304679684313 387.7311394854659L1028.7271485485426 387.7311394854659Q1030.0039254350154 387.7311394854659 1030.2805604270848 388.24185024005516Q1030.5571954191537 388.73128137986987 1030.5571954191537 390.1357359549903Q1030.5571954191537 391.54019053011075 1030.2167215827608 392.15729935857274Q1029.8762477463683 392.77440818703474 1028.7271485485426 392.77440818703474L1028.7271485485426 392.77440818703474L1015.5125077735456 392.476493580191L1001.4466824075669 392.77440818703474Q1000.1911851358683 392.77440818703474 999.8932705290246 392.2211382028964Q999.5740763074064 391.6465886039835 999.5740763074064 390.26341364363765Q999.5740763074064 388.8802386832918 1000.0209482176718 388.30568908437886Q1000.446540513163 387.7311394854659 1001.8935543178324 387.7311394854659L1001.8935543178324 387.7311394854659L1009.5754952514457 387.7311394854659Q1010.0223671617113 387.7311394854659 1010.0223671617113 371.3671157238355Q1010.0223671617113 355.00309196220513 1009.7031729400929 347.1721937251701Q1009.3839787184746 339.36257510290955 1009.2563010298273 338.9369828074185Q1009.1286233411801 338.51139051192746 1008.8519883491109 338.31987397895654L1008.8519883491109 338.31987397895654Q1008.5327941274926 338.08579821643644 1008.0646426024524 338.08579821643644L1008.0646426024524 338.08579821643644ZM1014.257010501847 314.0398335211928Q1011.0650682856643 314.0398335211928 1009.086064111631 312.2949051096796Q1007.1070599375977 310.54997669816635 1007.1070599375977 307.570830629729Q1007.1070599375977 304.5704049465172 1008.7455902752382 302.442443469062L1008.7455902752382 302.442443469062Q1011.8949732618718 298.39931666189716 1015.7465835360657 298.39931666189716L1015.7465835360657 298.39931666189716Q1023.6413206174244 298.39931666189716 1023.6413206174244 305.0172768567828L1023.6413206174244 305.0172768567828Q1023.6413206174244 308.9114463605258 1020.5557764751144 311.4862797482466Q1017.4702323328045 314.0398335211928 1014.257010501847 314.0398335211928ZM1085.203246160203 350.9599651550403L1085.203246160203 350.9599651550403L1084.3095023396718 382.219719258857Q1084.3095023396718 385.1563060977452 1086.394904587578 386.15644799214914L1086.394904587578 386.15644799214914Q1086.8204968830692 386.34796452512006 1087.309928022884 386.34796452512006Q1087.7780795479239 386.34796452512006 1090.4593110095175 384.4327991954104Q1093.140542471111 382.5389134804753 1093.4384570779548 382.5389134804753Q1093.7363716847985 382.5389134804753 1094.6939543496533 383.70929229307563Q1095.651537014508 384.879671105676 1095.651537014508 385.30526340116705Q1095.651537014508 385.7521353114326 1094.608835890555 386.53948105809104Q1093.5874143813762 387.3268268047495 1091.2892159857247 389.0079163719391Q1088.9910175900732 390.68900593912866 1085.9480326773123 392.8808062609075Q1082.9263273793258 395.0938861974609 1081.585711648529 395.0938861974609Q1080.2238163029579 395.0938861974609 1079.2662336381031 394.73213274629353Q1078.3299305880228 394.34909968035157 1077.7553809891097 393.83838892576233Q1077.2021110049714 393.3489577859476 1076.6914002503822 392.476493580191Q1076.180689495793 391.6253089892089 1075.9678933480477 391.02947977552145Q1075.7338175855275 390.4123709470595 1075.4146233639094 389.41222905265556Q1075.0954291422909 388.390807543477 1074.8826329945455 387.77369871501503L1074.8826329945455 387.77369871501503Q1074.5421591581526 386.7522772058366 1073.2653822716793 387.58218218204405L1073.2653822716793 387.58218218204405Q1061.9020679820687 394.6470142871953 1054.4967620405246 394.6470142871953Q1047.0914560989804 394.6470142871953 1042.941931217943 390.9656409311978Q1038.7924063369055 387.2842675752004 1038.7924063369055 381.13445890535485L1038.7924063369055 381.13445890535485Q1038.7924063369055 374.26114333317463 1044.4740634817108 369.4306707793513L1044.4740634817108 369.4306707793513Q1050.113161396967 364.6427574550772 1056.0288943042924 362.62119405149474L1056.0288943042924 362.62119405149474Q1065.4557636494187 359.4505314500865 1073.563296878523 358.0247972601915L1073.563296878523 358.0247972601915Q1074.3293630104072 357.87583995676965 1074.3293630104072 355.6414804054417Q1074.3293630104072 353.38584123933924 1074.286803780858 351.9388274346697Q1074.2442445513088 350.4705340152256 1074.095287247887 348.172335619574Q1073.946329944465 345.8741372239224 1073.5845764932978 344.53352149312565Q1073.244102656905 343.21418537710343 1072.6482734432175 341.46925696559015Q1072.0737238443044 339.74560816885145 1071.0948615646753 338.74546627444755Q1070.1372788998206 337.7453243800436 1068.8179427837981 336.8090213299633L1068.8179427837981 336.8090213299633Q1066.392066699499 335.02153368890094 1062.6255748844037 335.02153368890094Q1058.8803626840822 335.02153368890094 1056.3055292963618 336.08551442762854Q1053.7519755234152 337.14949516635613 1053.0284686210807 339.12849934038945Q1052.2836821039714 341.08622389964825 1052.2836821039714 344.8314360999694Q1052.2836821039714 348.55536868551593 1050.815388684527 349.5767901946944Q1049.3258156503084 350.57693208909836 1046.1125938193513 352.2367420415134Q1042.8993719883938 353.8752723791539 1042.3035427747063 353.8752723791539L1042.3035427747063 353.8752723791539Q1040.9203678143604 353.8752723791539 1040.9203678143604 350.55565247432384Q1040.9203678143604 347.2573121842683 1042.4099408485795 343.91641266466365Q1043.8995138827977 340.5542335302844 1046.367949196646 338.1496370607601Q1048.8576641252685 335.72376097646116 1051.9432082675785 333.97883256494794L1051.9432082675785 333.97883256494794Q1058.1142965521985 330.4251368975977 1063.7108352379055 330.4251368975977Q1069.3073739236129 330.4251368975977 1072.8610695909629 331.40399917722715Q1076.4147652583133 332.361581842082 1078.7342432687392 334.1065102535952Q1081.0537212791655 335.8514386651085 1082.5220146986094 338.46883128237835L1082.5220146986094 338.46883128237835Q1085.203246160203 343.25674460665255 1085.203246160203 350.9599651550403ZM1050.4110760038106 376.8359767208954L1050.4110760038106 376.8359767208954Q1050.4110760038106 379.3044120347434 1051.475056742538 381.58133081562045Q1052.5603170960403 383.836969981723 1054.773397032594 385.4116614750398Q1057.007756583922 386.98635296835664 1059.8166657341626 386.98635296835664Q1062.646854499178 386.98635296835664 1066.1367113222045 386.11388876259997L1066.1367113222045 386.11388876259997Q1074.3293630104072 384.0923253590176 1074.3293630104072 382.68787078389715L1074.3293630104072 382.68787078389715L1074.3293630104072 362.62119405149474Q1074.3293630104072 361.3869763945707 1073.9676095592395 361.3869763945707Q1073.6058561080722 361.3869763945707 1072.2652403772754 361.6636113866399L1072.2652403772754 361.6636113866399Q1050.4110760038106 365.9195343415503 1050.4110760038106 376.8359767208954ZM1111.547409251098 338.72418665967297L1102.3758952832663 339.0221012665167Q1101.290634929764 339.0221012665167 1101.290634929764 338.6603478153493Q1101.290634929764 338.27731474940737 1101.3970330036373 337.7453243800436Q1101.5247106922843 337.19205439590525 1101.6736679957062 336.5536659526687Q1101.8439049139029 335.91527750943214 1101.97158260255 335.3194482957447L1101.97158260255 335.3194482957447Q1102.1843787502953 334.42570447521354 1104.6528140641435 334.42570447521354L1104.6528140641435 334.42570447521354Q1117.4418625436492 333.97883256494794 1120.0166959313701 333.97883256494794Q1122.5702497043162 333.97883256494794 1122.8256050816108 334.14906948314433Q1123.059680844131 334.3193064013407 1123.059680844131 335.3194482957447L1123.059680844131 335.3194482957447L1122.9107235407091 344.2356068862819L1122.9107235407091 345.278308010235L1122.9532827702583 345.8741372239224Q1122.9532827702583 345.64006146140235 1123.5065527543966 344.53352149312565L1123.5065527543966 344.53352149312565Q1126.0601065273427 338.42627205282923 1130.2096314083801 334.80873754115544Q1134.359156289418 331.21248264425617 1137.9554111863172 331.21248264425617Q1141.5729456979907 331.21248264425617 1144.4882529221045 333.78731603197696Q1147.4035601462183 336.36214941969774 1147.4035601462183 338.107077831211Q1147.4035601462183 339.85200624272426 1145.275598668763 342.5119580895432Q1143.1476371913077 345.15063032158764 1141.5729456979907 345.15063032158764Q1139.9982542046741 345.15063032158764 1138.6576384738773 344.3845641897038Q1137.3170227430805 343.6184980578199 1136.2956012339023 342.7247542372887L1136.2956012339023 342.7247542372887Q1133.6143697723087 340.25631892344074 1132.0822375085409 340.25631892344074L1132.0822375085409 340.25631892344074Q1123.8044673612403 340.25631892344074 1123.8044673612403 371.04792150221726L1123.8044673612403 371.04792150221726Q1123.8044673612403 387.7311394854659 1125.1876423215863 387.7311394854659L1125.1876423215863 387.7311394854659L1135.295459339498 387.7311394854659Q1136.5722362259712 387.7311394854659 1136.933989677139 388.30568908437886Q1137.3170227430805 388.8802386832918 1137.3170227430805 389.8803805776957Q1137.3170227430805 390.88052247209964 1137.2744635135314 391.1997166937179Q1137.2319042839822 391.54019053011075 1137.0403877510116 391.94450321082724L1137.0403877510116 391.94450321082724Q1136.721193529393 392.77440818703474 1135.295459339498 392.77440818703474L1135.295459339498 392.77440818703474L1118.6122413562493 392.476493580191L1104.9507286709872 392.77440818703474Q1103.673951784514 392.77440818703474 1103.333477948121 392.19985858812186Q1102.9717244969538 391.6253089892089 1102.9717244969538 390.5613282504813Q1102.9717244969538 389.4760678969792 1103.014283726503 389.15687367536094Q1103.0568429560522 388.8163998389681 1103.205800259474 388.43336677302614L1103.205800259474 388.43336677302614Q1103.4611556367686 387.7311394854659 1104.8017713675654 387.7311394854659L1104.8017713675654 387.7311394854659L1111.547409251098 387.7311394854659Q1112.7816269080222 387.7311394854659 1112.7816269080222 363.2170232651822Q1112.7816269080222 338.72418665967297 1111.547409251098 338.72418665967297L1111.547409251098 338.72418665967297ZM1158.1072063778179 437.69567497611376L1158.1072063778179 437.69567497611376Q1154.8939845468603 437.69567497611376 1154.8939845468603 434.14197930876355L1154.8939845468603 434.14197930876355Q1154.8939845468603 431.65226438014105 1157.958249074396 427.41762104000514L1157.958249074396 427.41762104000514Q1159.2988648051928 425.5024557102955 1161.2140301349023 424.864067267059Q1163.1291954646122 424.2256788238224 1164.7038869579287 423.7149680692332Q1166.29985806602 423.18297769986935 1167.4063980342971 422.7999446339274Q1168.5129380025737 422.39563195321097 1170.0237906515667 421.7572435099744Q1171.5346433005602 421.0975754519633 1172.5773444245133 420.4591870087267L1172.5773444245133 420.4591870087267Q1175.0883389679102 418.927054744959 1175.8756847145687 417.0118894152493L1175.8756847145687 417.0118894152493Q1182.600042983327 400.4776287354225 1182.600042983327 399.05189454552755Q1182.600042983327 397.604880740858 1178.280281184093 386.98635296835664Q1173.9605193848588 376.3465455810807 1167.2361611161004 360.4081141149413Q1160.511802847342 344.4484030340274 1159.2988648051928 341.53309580991385Q1158.1072063778179 338.6177885858002 1157.8944102300725 338.3624332085056Q1157.6603344675523 338.08579821643644 1156.8729887208938 338.08579821643644L1156.8729887208938 338.08579821643644L1153.808724193358 338.08579821643644Q1152.0212365522957 338.08579821643644 1151.8722792488743 336.70262325609053L1151.8722792488743 336.70262325609053Q1151.8297200193251 336.36214941969774 1151.8297200193251 335.6599221321375L1151.8297200193251 335.6599221321375Q1151.8297200193251 333.0425295148676 1153.808724193358 333.0425295148676L1153.808724193358 333.0425295148676L1165.6189103932347 333.34044412171136L1179.0889065455258 333.0425295148676Q1180.5997591945193 333.0425295148676 1181.0679107195592 333.6596383433296Q1181.557341859374 334.27674717179167 1181.557341859374 335.6599221321375L1181.557341859374 335.6599221321375Q1181.557341859374 338.08579821643644 1179.2378638489477 338.08579821643644L1179.2378638489477 338.08579821643644L1176.3225566248343 338.08579821643644Q1172.811420187033 338.08579821643644 1172.811420187033 339.17105856993857L1172.811420187033 339.17105856993857Q1172.811420187033 340.89470736667727 1177.6418927408563 354.109348141674Q1182.4510856799052 367.34526853144524 1184.6003267721348 372.60133338075957Q1186.7708474791389 377.8573982300739 1187.1326009303066 378.7298624358305Q1187.5156339962487 379.6023266415871 1187.728430143994 380.11303739617637Q1187.9625059065138 380.6237481507656 1188.1753020542596 381.1131792905803L1188.1753020542596 381.1131792905803Q1188.6647331940744 382.07076195543516 1188.9413681861433 382.07076195543516Q1189.239282792987 382.07076195543516 1191.0693296635986 377.1764505572882L1191.0693296635986 377.1764505572882Q1203.454065462388 340.8308685223536 1203.454065462388 339.0221012665167L1203.454065462388 339.0221012665167Q1203.454065462388 338.08579821643644 1200.7089951564703 338.08579821643644L1200.7089951564703 338.08579821643644L1195.3252526185092 338.08579821643644Q1193.5377649774468 338.08579821643644 1193.388807674025 336.70262325609053L1193.388807674025 336.70262325609053Q1193.3462484444758 336.36214941969774 1193.3462484444758 335.68120174691205Q1193.3462484444758 334.97897445935183 1193.4100872887993 334.59594139340993Q1193.4526465183485 334.19162871269344 1193.6441630513195 333.78731603197696L1193.6441630513195 333.78731603197696Q1194.0271961172612 333.0425295148676 1195.4742099219307 333.0425295148676L1195.4742099219307 333.0425295148676L1205.7735434728138 333.34044412171136L1214.6258632190275 333.0425295148676Q1215.8175216464024 333.0425295148676 1216.2431139418936 333.61707911378056Q1216.64742662261 334.19162871269344 1216.64742662261 335.27688906619557Q1216.64742662261 336.36214941969774 1216.6048673930609 336.70262325609053Q1216.583587778286 337.0430970924834 1216.4346304748642 337.42613015842534L1216.4346304748642 337.42613015842534Q1216.1579954827953 338.08579821643644 1214.8173797519985 338.08579821643644L1214.8173797519985 338.08579821643644L1212.4979017415722 338.08579821643644Q1211.1147267812262 338.08579821643644 1210.6678548709606 339.32001587336043L1210.6678548709606 339.32001587336043Q1209.0506041480949 343.7461757464672 1200.368521320078 365.9833731858739Q1191.7077181068353 388.22057062528063 1190.8990927454024 390.19957479931395Q1190.090467383969 392.17857897334727 1189.239282792987 394.73213274629353L1189.239282792987 394.73213274629353Q1186.49421248707 402.8396659753978 1185.2174356005971 406.4784801018462Q1183.9619383288982 410.1385738430691 1183.3661091152107 411.81966341025867Q1182.7915595162976 413.50075297744826 1182.6638818276506 413.8412268138411Q1182.536204139003 414.18170065023395 1182.025493384414 415.5223163810307Q1181.5147826298248 416.86293211182743 1181.3232660968538 417.267244792544Q1181.1104699491084 417.6502778584859 1180.5997591945193 418.7780974415371Q1180.1103280547045 419.9059170245884 1179.7272949887624 420.4591870087267Q1179.3655415375952 421.0124569928651 1178.7484327091333 422.07643773159265Q1178.131323880671 423.1191388555457 1177.4929354374344 423.97032344652774L1177.4929354374344 423.97032344652774Q1176.2587177805103 425.6301333989428 1175.1308981974594 427.0133083592887Q1174.003078614408 428.41776293440915 1173.4923678598188 429.07743099242026Q1173.002936720004 429.73709905043137 1172.8752590313566 429.8860563538532Q1172.7688609574839 430.0350136572751 1172.3858278915422 430.5031651823152Q1171.9815152108254 430.97131670735536 1171.8112782926291 431.09899439600264Q1171.641041374433 431.22667208465 1171.2792879232652 431.58842553581735Q1170.8962548573236 431.9501789869847 1170.6196198652542 432.0991362904066Q1170.3429848731853 432.269373208603 1169.8535537333705 432.5672878154467L1169.8535537333705 432.5672878154467Q1169.1087672162612 433.05671895526143 1164.2570150476631 435.3761969656876Q1159.4265424938399 437.69567497611376 1158.1072063778179 437.69567497611376Z " fill="black" transform="matrix(0.719189463241623,0,0,0.7191894632416229,0,39.15309278162164)"/></g></svg>